<?xml version="1.0" standalone="no"?>
<svg xmlns="http://www.w3.org/2000/svg" viewBox="0 0 102 29" width="102" height="29"><g fill="#ff8686" color="#ff8686" transform="translate(0, 0) scale(0.5576924)"><svg width="52.0" height="52.0" x="0.0" y="0.0" viewBox="0 0 52 52"><path fill="currentColor" fill-rule="evenodd" d="M48.231 30.94l-.26 1.04c0 .173-.087.173-.087.173v-.173c.867-7.973-10.4-12.566-22.966-12.566-2.514 0-5.2.173-7.714.606-3.986.607-7.02 1.56-9.186 2.6.26 2.774 2.773 3.12 4.333 3.12h.52c2.253-.086 5.027-.52 6.413-.693.174 0 .434-.087.52-.087 1.56-.173 3.207-.346 4.767-.346 7.02 0 14.04 1.905 17.767 6.153 3.639 4.16 2.426 9.013-2.514 13.26-4.506 3.813-10.314 4.592-13.347 4.767h-.693c-3.293 0-6.153-.954-6.673-1.214-4.853-1.906-4.16-5.113-1.473-6.846 2.166-1.387 4.853-1.994 7.366-1.994 4.506 0 8.494 1.907 8.06 4.42-.26 1.734-2.34 2.687-3.987 2.687-.433 0-.867-.087-1.213-.261l-.087-.086c-.086-.173-.173-.26-.606-.433a5.446 5.446 0 0 0-1.647-.26c-1.56 0-3.206.607-3.64 1.473-.26.606.26 1.04.954 1.3.78.26 1.646.347 2.426.347.954 0 1.734-.087 2.167-.174 5.027-.867 9.446-3.206 11.267-5.286 1.473-1.733 1.126-4.16-2.947-6.067-3.467-1.733-7.887-2.08-11.18-2.08-2.167 0-3.813.174-4.42.26-.433.087-3.207.434-6.24.434h-.693c-1.04 0-1.994-.087-3.034-.261-2.773-.346-5.98-2.686-6.933-6.067a12.367 12.367 0 0 1-.173-.952v-.52c-.087-2.774-.26-6.674 1.646-9.36 3.814-5.287 11.614-7.627 19.587-7.627 11.093 0 22.62 4.68 24.18 12.827.086 0 .693 3.726-.26 7.886M23.791 3.207a22.726 22.726 0 0 1 20.02 8.493c-5.113-3.033-11.613-4.853-18.633-4.68-6.327.087-12.134 1.734-16.987 4.42 3.813-4.506 9.273-7.626 15.6-8.233m28.08 20.28c-.52-5.027-2.427-9.793-5.633-13.78A25.978 25.978 0 0 0 25.958 0c-.867 0-1.647 0-2.514.087-6.846.693-13.086 3.987-17.506 9.36C1.518 14.82-.562 21.58.13 28.427 1.344 41.947 12.698 52 25.958 52c.866 0 1.646 0 2.513-.086 6.933-.695 13.173-3.987 17.593-9.361a26.535 26.535 0 0 0 5.807-19.066"></path></svg></g><line x1="41" y1="1" x2="41" y2="28" stroke="#fe0b01" stroke-linecap="round"></line><path fill="#fe0b01" fill-rule="nonzero" d="M0 16.85L0 16.85L2.98 0.36Q3 0.26 3.10 0.26L3.10 0.26L6.58 0.26Q6.67 0.26 6.70 0.36L6.70 0.36L9.55 16.85Q9.58 16.97 9.46 16.97L9.46 16.97L6.79 16.97Q6.70 16.97 6.67 16.85L6.67 16.85L6.41 15.10L3.14 15.10L2.88 16.85Q2.86 16.97 2.76 16.97L2.76 16.97L0.10 16.97Q0 16.97 0 16.85ZM4.70 5.78L3.62 12.53L5.93 12.53L4.94 5.78L4.80 4.90L4.70 5.78ZM15.17 17.21L15.17 17.21Q13.90 17.21 12.82 16.55Q11.74 15.89 11.10 14.78Q10.46 13.68 10.46 12.36L10.46 12.36L10.51 0.36Q10.51 0.26 10.61 0.26L10.61 0.26L13.30 0.26Q13.39 0.26 13.39 0.36L13.39 0.36L13.39 12.36Q13.39 13.18 13.91 13.74Q14.42 14.30 15.17 14.30L15.17 14.30Q15.94 14.30 16.45 13.74Q16.97 13.18 16.97 12.36L16.97 12.36L16.97 0.36Q16.97 0.26 17.06 0.26L17.06 0.26L19.75 0.26Q19.85 0.26 19.85 0.36L19.85 0.36L19.90 12.36Q19.90 13.70 19.26 14.81Q18.62 15.91 17.56 16.56Q16.49 17.21 15.17 17.21ZM27.38 16.97L24.48 16.97Q24.38 16.97 24.36 16.85L24.36 16.85L21.05 0.36Q21.02 0.26 21.14 0.26L21.14 0.26L23.86 0.26Q23.95 0.26 23.98 0.36L23.98 0.36L25.94 11.35L27.86 0.36Q27.89 0.26 27.98 0.26L27.98 0.26L30.67 0.26Q30.79 0.26 30.77 0.36L30.77 0.36L27.50 16.85Q27.48 16.97 27.38 16.97L27.38 16.97ZM40.03 16.97L32.28 16.97Q32.18 16.97 32.18 16.85L32.18 16.85L32.21 0.36Q32.21 0.26 32.30 0.26L32.30 0.26L40.01 0.26Q40.10 0.26 40.10 0.38L40.10 0.38L40.10 3.07Q40.10 3.17 40.01 3.17L40.01 3.17L35.09 3.17L35.09 6.91L40.01 6.91Q40.10 6.91 40.10 7.01L40.10 7.01L40.13 9.72Q40.13 9.82 40.03 9.82L40.03 9.82L35.09 9.82L35.09 14.02L40.03 14.02Q40.13 14.02 40.13 14.14L40.13 14.14L40.13 16.87Q40.13 16.97 40.03 16.97L40.03 16.97ZM46.30 17.21L46.30 17.21Q44.98 17.21 43.91 16.55Q42.84 15.89 42.22 14.78Q41.59 13.68 41.59 12.31L41.59 12.31L41.62 4.82Q41.62 3.50 42.23 2.41Q42.84 1.32 43.91 0.66Q44.98 0 46.30 0L46.30 0Q47.62 0 48.67 0.65Q49.73 1.30 50.35 2.39Q50.98 3.48 50.98 4.82L50.98 4.82L50.98 5.93Q50.98 6.02 50.88 6.02L50.88 6.02L48.19 6.02Q48.10 6.02 48.10 5.93L48.10 5.93L48.10 4.82Q48.10 4.03 47.58 3.46Q47.06 2.88 46.30 2.88L46.30 2.88Q45.43 2.88 44.98 3.47Q44.52 4.06 44.52 4.82L44.52 4.82L44.52 12.31Q44.52 13.20 45.04 13.75Q45.55 14.30 46.30 14.30L46.30 14.30Q47.06 14.30 47.58 13.69Q48.10 13.08 48.10 12.31L48.10 12.31L48.10 11.21Q48.10 11.11 48.19 11.11L48.19 11.11L50.90 11.11Q51 11.11 51 11.21L51 11.21L51 12.31Q51 13.68 50.36 14.78Q49.73 15.89 48.67 16.55Q47.62 17.21 46.30 17.21Z" transform="translate(51, 6.016)"></path></svg>